<svg id="ejHXNDR9bPl1" xmlns="http://www.w3.org/2000/svg" xmlns:xlink="http://www.w3.org/1999/xlink" viewBox="0 0 1024 340" shape-rendering="geometricPrecision" text-rendering="geometricPrecision"><g transform="matrix(.999979 0 0 0.755374-2.672267 0.2652)"><path d="M2.672323,0h1024.021417v451.080921c-10.36994-42.70607-39.306375-68.390212-78.845125-90.694122-59.30812-33.45586-414.655813-12.048732-471.950523-22.279932-69.05986-27.62424-67.993713-64.573409-90.165576-142.844207C354.832828,66.115843,310.348182,36.707199,232.0076,36.707199c-58.82069,0-121.215767,0-229.335277,0L2.672323,0Z" transform="translate(0-.351085)" fill="#555454" stroke-width="0"/></g><path d="M273.65687,41.50376c70.96651,0,128.49624,57.52973,128.49624,128.49624s-57.52973,128.49624-128.49624,128.49624c-.00338,0-.00675,0-.01013,0h-223.64674v-256.99248c.00338,0,223.65349,0,223.65687,0Zm0,241.22053c62.2559,0,112.72429-50.46838,112.72429-112.72429s-50.46838-112.72429-112.72429-112.72429-112.72429,50.46838-112.72429,112.72429s50.46838,112.72429,112.72429,112.72429Z" transform="translate(-50 0)" fill="#555454" stroke-width="0"/></svg>